# xmcd
#
# Track frame offsets: 
#        150
#        12230
#        27230
#        40505
#        52292
#        62127
#        72600
#        86065
#        96805
#        109200
#        123380
#        134692
#        147972
#        161492
#        173850
#        188615
#        201000
#        213610
#        225287
#        238842
#        251440
#        264322
#        277750
#        290290
#        305250
#        319430
#
# Disc length: 4439 seconds
#
# Revision: 2
# Processed by: cddbd v1.5.2PL0 Copyright (c) Steve Scherf et al.
# Submitted via: ExactAudioCopyFreeDBPlugin 1.0
#
DISCID=7d11551a
DTITLE=Muddy Waters - Muddy Waters
DYEAR=1900
DGENRE=Blues
TTITLE0=The stuff you gotta watch
TTITLE1=Iodine in my coffee
TTITLE2=Close to you
TTITLE3=You gonna miss me
TTITLE4=Mean red spider
TTITLE5=Diamonds at your feet
TTITLE6=You gonna need my help
TTITLE7=She's all right
TTITLE8=So glad I'm living
TTITLE9=One more mile
TTITLE10=I can't call her sugar
TTITLE11=You can't lose what you ain't never had
TTITLE12=Sad letter
TTITLE13=I can't be satisfied
TTITLE14=Baby please don't go
TTITLE15=Walkin' thru the park
TTITLE16=Trainfare blues
TTITLE17=Sittin' here drinkin'
TTITLE18=I got a rich man's woman
TTITLE19=Mean mistreater
TTITLE20=Forty days and forty nights
TTITLE21=Rollin' and tumblin'
TTITLE22=All aboard
TTITLE23=Rock me
TTITLE24=Rollin' stone
TTITLE25=I'm ready
EXTD=
EXTT0=
EXTT1=
EXTT2=
EXTT3=
EXTT4=
EXTT5=
EXTT6=
EXTT7=
EXTT8=
EXTT9=
EXTT10=
EXTT11=
EXTT12=
EXTT13=
EXTT14=
EXTT15=
EXTT16=
EXTT17=
EXTT18=
EXTT19=
EXTT20=
EXTT21=
EXTT22=
EXTT23=
EXTT24=
EXTT25=
PLAYORDER=
